<svg width="512" height="512" viewBox="0 0 512 512" fill="none" xmlns="http://www.w3.org/2000/svg">
<path d="M64 263.851L237.525 163.667C248.957 157.066 263.043 157.066 274.475 163.667L448 263.851" stroke="white" stroke-width="55.4256" stroke-linecap="round"/>
<path d="M403.482 210.735C403.482 230.145 399.659 249.364 392.231 267.296C384.804 285.228 373.917 301.522 360.192 315.247C346.467 328.971 330.174 339.858 312.242 347.286C294.309 354.714 275.09 358.537 255.68 358.537C236.271 358.537 217.051 354.714 199.119 347.286C181.187 339.858 164.893 328.971 151.169 315.247C137.444 301.522 126.557 285.228 119.129 267.296C111.702 249.364 107.879 230.145 107.879 210.735M403.482 153V208.426M107.879 153L107.879 208.426" stroke="white" stroke-width="55.4256" stroke-linecap="round"/>
</svg>
